<svg width="27" height="29" viewBox="0 0 27 29" fill="none" xmlns="http://www.w3.org/2000/svg">
<g clip-path="url(#clip0_1_51)">
<mask id="mask0_1_51" style="mask-type:luminance" maskUnits="userSpaceOnUse" x="0" y="0" width="27" height="29">
<path d="M27 0H0V29H27V0Z" fill="white"/>
</mask>
<g mask="url(#mask0_1_51)">
<path d="M4.26756 11.2601C4.26593 10.1024 4.49337 8.95578 4.93678 7.88632C5.38019 6.81685 6.0308 5.84568 6.85115 5.02874C7.6715 4.2118 8.64537 3.56523 9.71666 3.12627C10.788 2.68731 11.9356 2.46464 13.0933 2.47108C17.9273 2.5077 21.7969 6.52382 21.7969 11.37V12.2367C21.7969 16.6068 22.7124 19.1459 23.5181 20.5375C23.6037 20.6857 23.6488 20.8538 23.6489 21.0249C23.6491 21.196 23.6043 21.3642 23.519 21.5126C23.4336 21.6609 23.3109 21.7843 23.1629 21.8702C23.0149 21.9562 22.8469 22.0017 22.6758 22.0023H3.38865C3.21752 22.0017 3.04956 21.9562 2.90158 21.8702C2.7536 21.7843 2.63081 21.6609 2.54551 21.5126C2.4602 21.3642 2.41538 21.196 2.41553 21.0249C2.41568 20.8538 2.4608 20.6857 2.54637 20.5375C3.35203 19.1459 4.26756 16.6068 4.26756 12.2367V11.2601Z" stroke="#454545" stroke-width="2" stroke-linecap="round" stroke-linejoin="round"/>
<path d="M9.12598 22.0022V22.9788C9.12598 24.0148 9.53753 25.0084 10.2701 25.7409C11.0027 26.4735 11.9963 26.885 13.0323 26.885C14.0683 26.885 15.0618 26.4735 15.7944 25.7409C16.527 25.0084 16.9385 24.0148 16.9385 22.9788V22.0022" stroke="#454545" stroke-width="2" stroke-linecap="round" stroke-linejoin="round"/>
<path d="M26.3499 6.9999C26.3499 4.59746 24.4023 2.6499 21.9999 2.6499C19.5975 2.6499 17.6499 4.59746 17.6499 6.9999C17.6499 9.40234 19.5975 11.3499 21.9999 11.3499C24.4023 11.3499 26.3499 9.40234 26.3499 6.9999Z" fill="#BF1125" stroke="#454545" stroke-width="0.7"/>
</g>
</g>
<defs>
<clipPath id="clip0_1_51">
<rect width="27" height="29" fill="white"/>
</clipPath>
</defs>
</svg>
