<svg width="531" height="113" viewBox="0 0 531 113" fill="none" xmlns="http://www.w3.org/2000/svg">
<g clip-path="url(#clip0_9_2)">
<g clip-path="url(#clip1_9_2)">
<path d="M3 39.4994C9.66667 30.8327 27.5 16.9994 45.5 30.9994C68 48.4994 93.5 38.4998 102 26.4998C110.5 14.4998 127.5 -9.50021 155 13.4998C182.5 36.4998 200 59.5 235 46C270 32.5 269 31.5 313 46C334.5 52.5 353 30 361 26C369 22 387.5 14.5 406 40C424.5 65.5 441 61 455.5 59.5C470 58 475.5 54.5 493 68.5C501.508 75.3062 515.493 63.9923 528 49.5046" stroke="#9EE96E" stroke-width="6" stroke-linecap="round"/>
</g>
</g>
<path d="M147.398 109.25V96.65H148.838L149.468 99.026V109.25H147.398ZM156.128 109.25L148.586 99.404L148.838 96.65L156.38 106.496L156.128 109.25ZM156.128 109.25L155.498 107.036V96.65H157.568V109.25H156.128ZM163.99 109.43C163.15 109.43 162.388 109.232 161.704 108.836C161.02 108.428 160.474 107.882 160.066 107.198C159.67 106.514 159.472 105.752 159.472 104.912C159.472 104.072 159.67 103.316 160.066 102.644C160.474 101.972 161.02 101.438 161.704 101.042C162.388 100.634 163.15 100.43 163.99 100.43C164.842 100.43 165.61 100.628 166.294 101.024C166.978 101.42 167.518 101.96 167.914 102.644C168.322 103.316 168.526 104.072 168.526 104.912C168.526 105.752 168.322 106.514 167.914 107.198C167.518 107.882 166.978 108.428 166.294 108.836C165.61 109.232 164.842 109.43 163.99 109.43ZM163.99 107.522C164.482 107.522 164.914 107.414 165.286 107.198C165.67 106.97 165.964 106.658 166.168 106.262C166.384 105.866 166.492 105.416 166.492 104.912C166.492 104.408 166.384 103.964 166.168 103.58C165.952 103.196 165.658 102.896 165.286 102.68C164.914 102.452 164.482 102.338 163.99 102.338C163.51 102.338 163.078 102.452 162.694 102.68C162.322 102.896 162.028 103.196 161.812 103.58C161.608 103.964 161.506 104.408 161.506 104.912C161.506 105.416 161.608 105.866 161.812 106.262C162.028 106.658 162.322 106.97 162.694 107.198C163.078 107.414 163.51 107.522 163.99 107.522ZM172.79 109.25L168.848 100.61H171.044L174.05 107.648H172.754L175.778 100.61H177.884L173.942 109.25H172.79ZM182.059 108.026L186.703 103.094C187.087 102.686 187.399 102.32 187.639 101.996C187.879 101.672 188.053 101.366 188.161 101.078C188.269 100.79 188.323 100.496 188.323 100.196C188.323 99.632 188.137 99.194 187.765 98.882C187.405 98.558 186.943 98.396 186.379 98.396C185.779 98.396 185.251 98.546 184.795 98.846C184.339 99.146 183.931 99.614 183.571 100.25L182.131 99.062C182.623 98.21 183.229 97.568 183.949 97.136C184.669 96.692 185.503 96.47 186.451 96.47C187.231 96.47 187.915 96.626 188.503 96.938C189.091 97.25 189.547 97.688 189.871 98.252C190.195 98.804 190.357 99.446 190.357 100.178C190.357 100.706 190.291 101.18 190.159 101.6C190.039 102.008 189.829 102.422 189.529 102.842C189.229 103.25 188.815 103.73 188.287 104.282L184.723 107.972L182.059 108.026ZM182.059 109.25V108.026L183.841 107.396H190.609V109.25H182.059ZM197.215 109.43C196.267 109.43 195.397 109.166 194.605 108.638C193.825 108.098 193.201 107.342 192.733 106.37C192.265 105.398 192.031 104.252 192.031 102.932C192.031 101.612 192.259 100.472 192.715 99.512C193.183 98.54 193.807 97.79 194.587 97.262C195.367 96.734 196.231 96.47 197.179 96.47C198.139 96.47 199.009 96.734 199.789 97.262C200.569 97.79 201.187 98.54 201.643 99.512C202.111 100.472 202.345 101.618 202.345 102.95C202.345 104.27 202.111 105.416 201.643 106.388C201.187 107.36 200.569 108.11 199.789 108.638C199.021 109.166 198.163 109.43 197.215 109.43ZM197.179 107.486C197.803 107.486 198.343 107.318 198.799 106.982C199.255 106.646 199.609 106.142 199.861 105.47C200.125 104.798 200.257 103.952 200.257 102.932C200.257 101.924 200.125 101.084 199.861 100.412C199.609 99.74 199.249 99.242 198.781 98.918C198.325 98.582 197.791 98.414 197.179 98.414C196.567 98.414 196.027 98.582 195.559 98.918C195.103 99.242 194.749 99.74 194.497 100.412C194.245 101.072 194.119 101.912 194.119 102.932C194.119 103.952 194.245 104.798 194.497 105.47C194.749 106.142 195.103 106.646 195.559 106.982C196.027 107.318 196.567 107.486 197.179 107.486Z" fill="white"/>
<path d="M234.458 109.25V96.65H235.898L236.528 99.026V109.25H234.458ZM243.188 109.25L235.646 99.404L235.898 96.65L243.44 106.496L243.188 109.25ZM243.188 109.25L242.558 107.036V96.65H244.628V109.25H243.188ZM251.05 109.43C250.21 109.43 249.448 109.232 248.764 108.836C248.08 108.428 247.534 107.882 247.126 107.198C246.73 106.514 246.532 105.752 246.532 104.912C246.532 104.072 246.73 103.316 247.126 102.644C247.534 101.972 248.08 101.438 248.764 101.042C249.448 100.634 250.21 100.43 251.05 100.43C251.902 100.43 252.67 100.628 253.354 101.024C254.038 101.42 254.578 101.96 254.974 102.644C255.382 103.316 255.586 104.072 255.586 104.912C255.586 105.752 255.382 106.514 254.974 107.198C254.578 107.882 254.038 108.428 253.354 108.836C252.67 109.232 251.902 109.43 251.05 109.43ZM251.05 107.522C251.542 107.522 251.974 107.414 252.346 107.198C252.73 106.97 253.024 106.658 253.228 106.262C253.444 105.866 253.552 105.416 253.552 104.912C253.552 104.408 253.444 103.964 253.228 103.58C253.012 103.196 252.718 102.896 252.346 102.68C251.974 102.452 251.542 102.338 251.05 102.338C250.57 102.338 250.138 102.452 249.754 102.68C249.382 102.896 249.088 103.196 248.872 103.58C248.668 103.964 248.566 104.408 248.566 104.912C248.566 105.416 248.668 105.866 248.872 106.262C249.088 106.658 249.382 106.97 249.754 107.198C250.138 107.414 250.57 107.522 251.05 107.522ZM259.85 109.25L255.908 100.61H258.104L261.11 107.648H259.814L262.838 100.61H264.944L261.002 109.25H259.85ZM269.119 108.026L273.763 103.094C274.147 102.686 274.459 102.32 274.699 101.996C274.939 101.672 275.113 101.366 275.221 101.078C275.329 100.79 275.383 100.496 275.383 100.196C275.383 99.632 275.197 99.194 274.825 98.882C274.465 98.558 274.003 98.396 273.439 98.396C272.839 98.396 272.311 98.546 271.855 98.846C271.399 99.146 270.991 99.614 270.631 100.25L269.191 99.062C269.683 98.21 270.289 97.568 271.009 97.136C271.729 96.692 272.563 96.47 273.511 96.47C274.291 96.47 274.975 96.626 275.563 96.938C276.151 97.25 276.607 97.688 276.931 98.252C277.255 98.804 277.417 99.446 277.417 100.178C277.417 100.706 277.351 101.18 277.219 101.6C277.099 102.008 276.889 102.422 276.589 102.842C276.289 103.25 275.875 103.73 275.347 104.282L271.783 107.972L269.119 108.026ZM269.119 109.25V108.026L270.901 107.396H277.669V109.25H269.119ZM284.276 109.43C283.328 109.43 282.458 109.166 281.666 108.638C280.886 108.098 280.262 107.342 279.794 106.37C279.326 105.398 279.092 104.252 279.092 102.932C279.092 101.612 279.32 100.472 279.776 99.512C280.244 98.54 280.868 97.79 281.648 97.262C282.428 96.734 283.292 96.47 284.24 96.47C285.2 96.47 286.07 96.734 286.85 97.262C287.63 97.79 288.248 98.54 288.704 99.512C289.172 100.472 289.406 101.618 289.406 102.95C289.406 104.27 289.172 105.416 288.704 106.388C288.248 107.36 287.63 108.11 286.85 108.638C286.082 109.166 285.224 109.43 284.276 109.43ZM284.24 107.486C284.864 107.486 285.404 107.318 285.86 106.982C286.316 106.646 286.67 106.142 286.922 105.47C287.186 104.798 287.318 103.952 287.318 102.932C287.318 101.924 287.186 101.084 286.922 100.412C286.67 99.74 286.31 99.242 285.842 98.918C285.386 98.582 284.852 98.414 284.24 98.414C283.628 98.414 283.088 98.582 282.62 98.918C282.164 99.242 281.81 99.74 281.558 100.412C281.306 101.072 281.18 101.912 281.18 102.932C281.18 103.952 281.306 104.798 281.558 105.47C281.81 106.142 282.164 106.646 282.62 106.982C283.088 107.318 283.628 107.486 284.24 107.486Z" fill="white"/>
<path d="M321.518 109.25V96.65H322.958L323.588 99.026V109.25H321.518ZM330.248 109.25L322.706 99.404L322.958 96.65L330.5 106.496L330.248 109.25ZM330.248 109.25L329.618 107.036V96.65H331.688V109.25H330.248ZM338.11 109.43C337.27 109.43 336.508 109.232 335.824 108.836C335.14 108.428 334.594 107.882 334.186 107.198C333.79 106.514 333.592 105.752 333.592 104.912C333.592 104.072 333.79 103.316 334.186 102.644C334.594 101.972 335.14 101.438 335.824 101.042C336.508 100.634 337.27 100.43 338.11 100.43C338.962 100.43 339.73 100.628 340.414 101.024C341.098 101.42 341.638 101.96 342.034 102.644C342.442 103.316 342.646 104.072 342.646 104.912C342.646 105.752 342.442 106.514 342.034 107.198C341.638 107.882 341.098 108.428 340.414 108.836C339.73 109.232 338.962 109.43 338.11 109.43ZM338.11 107.522C338.602 107.522 339.034 107.414 339.406 107.198C339.79 106.97 340.084 106.658 340.288 106.262C340.504 105.866 340.612 105.416 340.612 104.912C340.612 104.408 340.504 103.964 340.288 103.58C340.072 103.196 339.778 102.896 339.406 102.68C339.034 102.452 338.602 102.338 338.11 102.338C337.63 102.338 337.198 102.452 336.814 102.68C336.442 102.896 336.148 103.196 335.932 103.58C335.728 103.964 335.626 104.408 335.626 104.912C335.626 105.416 335.728 105.866 335.932 106.262C336.148 106.658 336.442 106.97 336.814 107.198C337.198 107.414 337.63 107.522 338.11 107.522ZM346.91 109.25L342.968 100.61H345.164L348.17 107.648H346.874L349.898 100.61H352.004L348.062 109.25H346.91ZM356.179 108.026L360.823 103.094C361.207 102.686 361.519 102.32 361.759 101.996C361.999 101.672 362.173 101.366 362.281 101.078C362.389 100.79 362.443 100.496 362.443 100.196C362.443 99.632 362.257 99.194 361.885 98.882C361.525 98.558 361.063 98.396 360.499 98.396C359.899 98.396 359.371 98.546 358.915 98.846C358.459 99.146 358.051 99.614 357.691 100.25L356.251 99.062C356.743 98.21 357.349 97.568 358.069 97.136C358.789 96.692 359.623 96.47 360.571 96.47C361.351 96.47 362.035 96.626 362.623 96.938C363.211 97.25 363.667 97.688 363.991 98.252C364.315 98.804 364.477 99.446 364.477 100.178C364.477 100.706 364.411 101.18 364.279 101.6C364.159 102.008 363.949 102.422 363.649 102.842C363.349 103.25 362.935 103.73 362.407 104.282L358.843 107.972L356.179 108.026ZM356.179 109.25V108.026L357.961 107.396H364.729V109.25H356.179ZM371.336 109.43C370.388 109.43 369.518 109.166 368.726 108.638C367.946 108.098 367.322 107.342 366.854 106.37C366.386 105.398 366.152 104.252 366.152 102.932C366.152 101.612 366.38 100.472 366.836 99.512C367.304 98.54 367.928 97.79 368.708 97.262C369.488 96.734 370.352 96.47 371.3 96.47C372.26 96.47 373.13 96.734 373.91 97.262C374.69 97.79 375.308 98.54 375.764 99.512C376.232 100.472 376.466 101.618 376.466 102.95C376.466 104.27 376.232 105.416 375.764 106.388C375.308 107.36 374.69 108.11 373.91 108.638C373.142 109.166 372.284 109.43 371.336 109.43ZM371.3 107.486C371.924 107.486 372.464 107.318 372.92 106.982C373.376 106.646 373.73 106.142 373.982 105.47C374.246 104.798 374.378 103.952 374.378 102.932C374.378 101.924 374.246 101.084 373.982 100.412C373.73 99.74 373.37 99.242 372.902 98.918C372.446 98.582 371.912 98.414 371.3 98.414C370.688 98.414 370.148 98.582 369.68 98.918C369.224 99.242 368.87 99.74 368.618 100.412C368.366 101.072 368.24 101.912 368.24 102.932C368.24 103.952 368.366 104.798 368.618 105.47C368.87 106.142 369.224 106.646 369.68 106.982C370.148 107.318 370.688 107.486 371.3 107.486Z" fill="white"/>
<path d="M408.588 109.25V96.65H410.028L410.658 99.026V109.25H408.588ZM417.318 109.25L409.776 99.404L410.028 96.65L417.57 106.496L417.318 109.25ZM417.318 109.25L416.688 107.036V96.65H418.758V109.25H417.318ZM425.18 109.43C424.34 109.43 423.578 109.232 422.894 108.836C422.21 108.428 421.664 107.882 421.256 107.198C420.86 106.514 420.662 105.752 420.662 104.912C420.662 104.072 420.86 103.316 421.256 102.644C421.664 101.972 422.21 101.438 422.894 101.042C423.578 100.634 424.34 100.43 425.18 100.43C426.032 100.43 426.8 100.628 427.484 101.024C428.168 101.42 428.708 101.96 429.104 102.644C429.512 103.316 429.716 104.072 429.716 104.912C429.716 105.752 429.512 106.514 429.104 107.198C428.708 107.882 428.168 108.428 427.484 108.836C426.8 109.232 426.032 109.43 425.18 109.43ZM425.18 107.522C425.672 107.522 426.104 107.414 426.476 107.198C426.86 106.97 427.154 106.658 427.358 106.262C427.574 105.866 427.682 105.416 427.682 104.912C427.682 104.408 427.574 103.964 427.358 103.58C427.142 103.196 426.848 102.896 426.476 102.68C426.104 102.452 425.672 102.338 425.18 102.338C424.7 102.338 424.268 102.452 423.884 102.68C423.512 102.896 423.218 103.196 423.002 103.58C422.798 103.964 422.696 104.408 422.696 104.912C422.696 105.416 422.798 105.866 423.002 106.262C423.218 106.658 423.512 106.97 423.884 107.198C424.268 107.414 424.7 107.522 425.18 107.522ZM433.98 109.25L430.038 100.61H432.234L435.24 107.648H433.944L436.968 100.61H439.074L435.132 109.25H433.98ZM443.249 108.026L447.893 103.094C448.277 102.686 448.589 102.32 448.829 101.996C449.069 101.672 449.243 101.366 449.351 101.078C449.459 100.79 449.513 100.496 449.513 100.196C449.513 99.632 449.327 99.194 448.955 98.882C448.595 98.558 448.133 98.396 447.569 98.396C446.969 98.396 446.441 98.546 445.985 98.846C445.529 99.146 445.121 99.614 444.761 100.25L443.321 99.062C443.813 98.21 444.419 97.568 445.139 97.136C445.859 96.692 446.693 96.47 447.641 96.47C448.421 96.47 449.105 96.626 449.693 96.938C450.281 97.25 450.737 97.688 451.061 98.252C451.385 98.804 451.547 99.446 451.547 100.178C451.547 100.706 451.481 101.18 451.349 101.6C451.229 102.008 451.019 102.422 450.719 102.842C450.419 103.25 450.005 103.73 449.477 104.282L445.913 107.972L443.249 108.026ZM443.249 109.25V108.026L445.031 107.396H451.799V109.25H443.249ZM458.405 109.43C457.457 109.43 456.587 109.166 455.795 108.638C455.015 108.098 454.391 107.342 453.923 106.37C453.455 105.398 453.221 104.252 453.221 102.932C453.221 101.612 453.449 100.472 453.905 99.512C454.373 98.54 454.997 97.79 455.777 97.262C456.557 96.734 457.421 96.47 458.369 96.47C459.329 96.47 460.199 96.734 460.979 97.262C461.759 97.79 462.377 98.54 462.833 99.512C463.301 100.472 463.535 101.618 463.535 102.95C463.535 104.27 463.301 105.416 462.833 106.388C462.377 107.36 461.759 108.11 460.979 108.638C460.211 109.166 459.353 109.43 458.405 109.43ZM458.369 107.486C458.993 107.486 459.533 107.318 459.989 106.982C460.445 106.646 460.799 106.142 461.051 105.47C461.315 104.798 461.447 103.952 461.447 102.932C461.447 101.924 461.315 101.084 461.051 100.412C460.799 99.74 460.439 99.242 459.971 98.918C459.515 98.582 458.981 98.414 458.369 98.414C457.757 98.414 457.217 98.582 456.749 98.918C456.293 99.242 455.939 99.74 455.687 100.412C455.435 101.072 455.309 101.912 455.309 102.932C455.309 103.952 455.435 104.798 455.687 105.47C455.939 106.142 456.293 106.646 456.749 106.982C457.217 107.318 457.757 107.486 458.369 107.486Z" fill="white"/>
<defs>
<clipPath id="clip0_9_2">
<rect width="531" height="74" fill="white"/>
</clipPath>
<clipPath id="clip1_9_2">
<rect width="531" height="74" fill="white"/>
</clipPath>
</defs>
</svg>
