<svg width="34" height="26" viewBox="0 0 34 26" fill="none" xmlns="http://www.w3.org/2000/svg">
<g clip-path="url(#clip0_1_60)">
<g clip-path="url(#clip1_1_60)">
<g clip-path="url(#clip2_1_60)">
<mask id="mask0_1_60" style="mask-type:luminance" maskUnits="userSpaceOnUse" x="0" y="0" width="34" height="26">
<path d="M33.5 0H0.5V26H33.5V0Z" fill="white"/>
</mask>
<g mask="url(#mask0_1_60)">
<path d="M19.6423 21.8191L17.8404 24.8264C17.7521 24.9699 17.6286 25.0885 17.4815 25.1707C17.3344 25.2529 17.1688 25.2961 17.0003 25.2961C16.8318 25.2961 16.6661 25.2529 16.519 25.1707C16.372 25.0885 16.2484 24.9699 16.1602 24.8264L14.3582 21.8191C14.2735 21.6748 14.1525 21.555 14.0073 21.4718C13.8621 21.3885 13.6977 21.3445 13.5303 21.3443H6.28603C6.02771 21.3443 5.77996 21.2417 5.59729 21.059C5.41463 20.8763 5.31201 20.6286 5.31201 20.3702V4.78579C5.31201 4.52746 5.41463 4.27972 5.59729 4.09705C5.77996 3.91439 6.02771 3.81177 6.28603 3.81177H27.7146C27.9729 3.81177 28.2206 3.91439 28.4033 4.09705C28.586 4.27972 28.6886 4.52746 28.6886 4.78579V20.3702C28.6886 20.6286 28.586 20.8763 28.4033 21.059C28.2206 21.2417 27.9729 21.3443 27.7146 21.3443H20.4702C20.3029 21.3445 20.1384 21.3885 19.9932 21.4718C19.848 21.555 19.7271 21.6748 19.6423 21.8191Z" stroke="#525152" stroke-width="2" stroke-linecap="round" stroke-linejoin="round"/>
<path d="M17.0002 13.7955C17.6726 13.7955 18.2177 13.2504 18.2177 12.5779C18.2177 11.9055 17.6726 11.3604 17.0002 11.3604C16.3278 11.3604 15.7827 11.9055 15.7827 12.5779C15.7827 13.2504 16.3278 13.7955 17.0002 13.7955Z" fill="#525152"/>
<path d="M22.8445 13.7955C23.517 13.7955 24.0621 13.2504 24.0621 12.5779C24.0621 11.9055 23.517 11.3604 22.8445 11.3604C22.1721 11.3604 21.627 11.9055 21.627 12.5779C21.627 13.2504 22.1721 13.7955 22.8445 13.7955Z" fill="#525152"/>
<path d="M11.156 13.7955C11.8284 13.7955 12.3735 13.2504 12.3735 12.5779C12.3735 11.9055 11.8284 11.3604 11.156 11.3604C10.4836 11.3604 9.93848 11.9055 9.93848 12.5779C9.93848 13.2504 10.4836 13.7955 11.156 13.7955Z" fill="#525152"/>
</g>
</g>
</g>
</g>
<defs>
<clipPath id="clip0_1_60">
<rect width="33" height="26" fill="white" transform="translate(0.5)"/>
</clipPath>
<clipPath id="clip1_1_60">
<rect width="33" height="26" fill="white" transform="translate(0.5)"/>
</clipPath>
<clipPath id="clip2_1_60">
<rect width="33" height="26" fill="white" transform="translate(0.5)"/>
</clipPath>
</defs>
</svg>
