<svg width="24" height="22" viewBox="0 0 24 22" fill="none" xmlns="http://www.w3.org/2000/svg">
<path d="M2.85203 9.78916C2.8504 8.63146 3.07784 7.48484 3.52125 6.41538C3.96466 5.34591 4.61527 4.37474 5.43562 3.5578C6.25597 2.74086 7.22984 2.09429 8.30113 1.65533C9.37243 1.21637 10.52 0.993696 11.6777 1.00014C16.5117 1.03676 20.3813 5.05288 20.3813 9.89906V10.7658C20.3813 15.1359 21.2968 17.675 22.1025 19.0666C22.1881 19.2148 22.2332 19.3829 22.2333 19.554C22.2335 19.7251 22.1887 19.8933 22.1034 20.0417C22.018 20.19 21.8953 20.3134 21.7473 20.3993C21.5993 20.4853 21.4313 20.5308 21.2602 20.5314H1.97312C1.80199 20.5308 1.63403 20.4853 1.48605 20.3993C1.33807 20.3134 1.21528 20.19 1.12998 20.0417C1.04467 19.8933 0.99985 19.7251 1 19.554C1.00015 19.3829 1.04527 19.2148 1.13084 19.0666C1.9365 17.675 2.85203 15.1359 2.85203 10.7658V9.78916Z" stroke="#454545" stroke-width="2" stroke-linecap="round" stroke-linejoin="round"/>
</svg>
