<svg width="195" height="156" viewBox="0 0 195 156" fill="none" xmlns="http://www.w3.org/2000/svg">
<path d="M87.3242 18L51.8242 84L31.3242 89.5C33.6576 85.1666 36.3242 81.5 39.3242 78.5C42.6576 75.5 46.1576 74 49.8242 74C58.4909 74 66.3242 77.6666 73.3242 85C80.6576 92.3333 84.3242 101.5 84.3242 112.5C84.3242 124.167 80.3242 134.333 72.3242 143C64.3242 151.333 54.4909 155.5 42.8242 155.5C31.4909 155.5 21.6576 151.333 13.3242 143C4.99089 134.667 0.82422 124.5 0.82422 112.5C0.82422 107.833 1.82422 102.333 3.82422 96C5.82422 89.3333 9.49089 81 14.8242 71L53.3242 -2.64645e-05L87.3242 18ZM194.824 18L159.324 84L138.824 89.5C141.158 85.1666 143.824 81.5 146.824 78.5C149.824 75.5 153.324 74 157.324 74C165.991 74 173.824 77.6666 180.824 85C188.158 92.3333 191.824 101.5 191.824 112.5C191.824 124.167 187.658 134.333 179.324 143C171.324 151.333 161.491 155.5 149.824 155.5C138.824 155.5 129.158 151.333 120.824 143C112.491 134.667 108.324 124.5 108.324 112.5C108.324 107.833 109.324 102.333 111.324 96C113.324 89.3333 116.991 81 122.324 71L160.824 -2.64645e-05L194.824 18Z" fill="#9EE96E"/>
</svg>
