<svg width="34" height="26" viewBox="0 0 34 26" fill="none" xmlns="http://www.w3.org/2000/svg">
<g clip-path="url(#clip0_1_299)">
<path fill-rule="evenodd" clip-rule="evenodd" d="M17.1009 25.9799C18.8645 25.9799 20.4923 25.3983 21.8027 24.4165C23.9601 25.8858 26.806 26.2377 29.3658 25.0982C33.2973 23.348 35.0655 18.7427 33.3151 14.8119L28.7783 4.62377C27.0279 0.692928 22.4217 -1.07485 18.4902 0.675268C17.9371 0.921549 17.4267 1.22429 16.963 1.57383C16.5193 1.24778 16.034 0.964089 15.5104 0.730944C11.5789 -1.01917 6.97283 0.748691 5.22238 4.67953L0.685634 14.8675C-1.06479 18.7984 0.703332 23.4038 4.6348 25.1538C7.25169 26.3188 10.1675 25.9251 12.3409 24.3724C13.6613 25.3809 15.3112 25.9799 17.1009 25.9799Z" fill="black"/>
<path fill-rule="evenodd" clip-rule="evenodd" d="M16.9294 3.91717C17.5072 3.2186 18.251 2.63931 19.1356 2.24557C22.1975 0.882544 25.7849 2.2594 27.1482 5.32082L31.7201 15.5876C33.0833 18.6491 31.7063 22.2359 28.6443 23.5989C26.1935 24.6899 23.4061 24.0257 21.6919 22.1472C20.5639 23.4552 18.8944 24.2833 17.0314 24.2833C15.1348 24.2833 13.4387 23.4251 12.3104 22.076C10.6067 24.0441 7.7547 24.7591 5.25337 23.6456C2.19135 22.2826 0.814283 18.6958 2.17756 15.6343L6.7494 5.36745C8.11275 2.30595 11.7001 0.929172 14.7621 2.2922C15.6268 2.67715 16.3571 3.2394 16.9294 3.91717Z" fill="white"/>
<path d="M25.6942 10.7996L28.5309 17.0889C29.1049 18.3616 28.525 19.8527 27.2357 20.4193C25.9466 20.9861 24.4362 20.4136 23.8621 19.1409L21.5691 14.0567L20.5586 16.407V10.7996H25.6942Z" fill="#2AA8FF"/>
<path d="M26.0015 11.4812L26.5885 12.7827C26.2339 12.6611 25.8532 12.595 25.4567 12.595C23.819 12.595 22.4483 13.7223 22.0991 15.2329L21.569 14.0572L21.0071 15.3642V11.4812H26.0015Z" fill="#393939" fill-opacity="0.2"/>
<path d="M17.4652 10.6889V15.1427H12.7397L12.2499 14.0566L11.7829 15.1427H6.55591V14.387L9.83198 6.76802C10.2463 5.80447 11.1963 5.22709 12.1941 5.23048C13.1757 5.22709 14.1138 5.78551 14.5386 6.72766L16.9089 11.9829L17.4652 10.6889Z" fill="#017ACE"/>
<path d="M16.9054 11.9753L16.9089 11.9829L19.1512 6.76802C19.5656 5.80447 20.5155 5.22709 21.5133 5.23048C22.495 5.22709 23.433 5.78551 23.8578 6.72766L26.5861 12.777C26.0359 12.308 25.3193 12.0243 24.5353 12.0243C23.173 12.0243 22.0136 12.8807 21.5788 14.0779L21.5691 14.0566L19.3665 19.1793C18.815 20.4617 17.315 21.0601 16.0159 20.5157C15.8888 20.4624 15.7683 20.4002 15.6549 20.3301C15.1786 20.0744 14.7805 19.6676 14.543 19.1408L12.2588 14.0762C12.6026 14.1735 12.9658 14.2255 13.3413 14.2255C14.9212 14.2255 16.283 13.3038 16.9054 11.9753Z" fill="#AEDEFF"/>
<path d="M12.2357 14.0897L10.5909 17.9152C10.1897 18.0969 9.74275 18.1982 9.27151 18.1982C7.61842 18.1982 6.26369 16.9524 6.14014 15.3543L7.26899 12.729C7.81254 12.2847 8.51035 12.0176 9.27151 12.0176C10.6415 12.0176 11.8065 12.8829 12.2357 14.0897Z" fill="black"/>
<path d="M11.753 15.2123L10.0472 19.1793C9.49579 20.4617 7.99576 21.0601 6.69671 20.5157C5.39758 19.9713 4.79156 18.4905 5.34294 17.208L7.23704 12.8031C7.63798 12.6279 8.08138 12.5305 8.54774 12.5305C10.1579 12.5305 11.4946 13.6902 11.753 15.2123Z" fill="#393939"/>
</g>
<defs>
<clipPath id="clip0_1_299">
<rect width="34" height="25.98" fill="white"/>
</clipPath>
</defs>
</svg>
